<svg width="149" height="88" viewBox="0 0 149 88" fill="none" xmlns="http://www.w3.org/2000/svg">
<path d="M0.765625 38.4256C0.765625 37.86 0.856648 37.303 1.04213 36.7529C1.22589 36.2035 1.33581 35.8969 1.3693 35.8296L12.5445 7.72245C12.8468 7.02322 13.2908 6.4824 13.8781 6.09999C14.4655 5.71759 15.1619 5.50978 15.9674 5.47656H20.096H23.2166C24.089 5.50978 24.8095 5.74314 25.3814 6.17494C25.9516 6.6076 26.3371 7.12371 26.5389 7.72245L37.8146 35.8296C37.8481 35.9966 37.9486 36.3372 38.1169 36.8525C38.2843 37.3686 38.3694 37.86 38.3694 38.3251C38.3694 39.5234 37.6978 40.2226 36.3557 40.4219H29.4594C28.7553 40.4219 28.1584 40.2976 27.6733 40.048C27.1855 39.7985 26.8747 39.4408 26.7416 38.974L25.1813 33.9823H13.9537L12.3943 38.974C12.2594 39.4408 11.9572 39.7985 11.4875 40.048C11.0169 40.2976 10.4304 40.4219 9.7254 40.4219H2.72863C1.41996 40.2235 0.765625 39.5574 0.765625 38.4256ZM20.0952 25.5447H23.3668L19.3902 13.8128L15.4642 25.5447H20.0952Z" fill="#B42DCC"/>
<path d="M0.765625 38.4256C0.765625 37.86 0.856648 37.303 1.04213 36.7529C1.22589 36.2035 1.33581 35.8969 1.3693 35.8296L12.5445 7.72245C12.8468 7.02322 13.2908 6.4824 13.8781 6.09999C14.4655 5.71759 15.1619 5.50978 15.9674 5.47656H20.096H23.2166C24.089 5.50978 24.8095 5.74314 25.3814 6.17494C25.9516 6.6076 26.3371 7.12371 26.5389 7.72245L37.8146 35.8296C37.8481 35.9966 37.9486 36.3372 38.1169 36.8525C38.2843 37.3686 38.3694 37.86 38.3694 38.3251C38.3694 39.5234 37.6978 40.2226 36.3557 40.4219H29.4594C28.7553 40.4219 28.1584 40.2976 27.6733 40.048C27.1855 39.7985 26.8747 39.4408 26.7416 38.974L25.1813 33.9823H13.9537L12.3943 38.974C12.2594 39.4408 11.9572 39.7985 11.4875 40.048C11.0169 40.2976 10.4304 40.4219 9.7254 40.4219H2.72863C1.41996 40.2235 0.765625 39.5574 0.765625 38.4256ZM20.0952 25.5447H23.3668L19.3902 13.8128L15.4642 25.5447H20.0952Z" fill="white"/>
<path d="M43.7504 40.3722C43.1793 40.3722 42.6856 40.1652 42.2657 39.7487C41.8449 39.3331 41.6362 38.8085 41.6362 38.1757V7.62249C41.6362 6.99055 41.8449 6.4574 42.2657 6.02474C42.6847 5.59294 43.1785 5.37576 43.7504 5.37576H50.5462C51.1164 5.37576 51.611 5.59294 52.0309 6.02474C52.45 6.4574 52.6603 6.99055 52.6603 7.62249V29.9885H66.5027C67.1399 29.9885 67.6852 30.1878 68.1386 30.5872C68.5911 30.9866 68.8178 31.4866 68.8178 32.0853V38.3758C68.8178 38.9422 68.5911 39.4242 68.1386 39.8237C67.6852 40.2231 67.1399 40.4224 66.5027 40.4224H45.059L43.7504 40.3722Z" fill="#B42DCC"/>
<path d="M43.7504 40.3722C43.1793 40.3722 42.6856 40.1652 42.2657 39.7487C41.8449 39.3331 41.6362 38.8085 41.6362 38.1757V7.62249C41.6362 6.99055 41.8449 6.4574 42.2657 6.02474C42.6847 5.59294 43.1785 5.37576 43.7504 5.37576H50.5462C51.1164 5.37576 51.611 5.59294 52.0309 6.02474C52.45 6.4574 52.6603 6.99055 52.6603 7.62249V29.9885H66.5027C67.1399 29.9885 67.6852 30.1878 68.1386 30.5872C68.5911 30.9866 68.8178 31.4866 68.8178 32.0853V38.3758C68.8178 38.9422 68.5911 39.4242 68.1386 39.8237C67.6852 40.2231 67.1399 40.4224 66.5027 40.4224H45.059L43.7504 40.3722Z" fill="white"/>
<path d="M74.249 40.3722C73.6788 40.3722 73.1842 40.1652 72.7643 39.7487C72.3444 39.3331 72.1357 38.8085 72.1357 38.1757V7.62249C72.1357 6.99055 72.3444 6.4574 72.7643 6.02474C73.1834 5.59294 73.678 5.37576 74.249 5.37576H81.0449C81.615 5.37576 82.1097 5.59294 82.5296 6.02474C82.9486 6.4574 83.159 6.99055 83.159 7.62249V29.9885H97.0005C97.6377 29.9885 98.1838 30.1878 98.6372 30.5872C99.0898 30.9866 99.3165 31.4866 99.3165 32.0853V38.3758C99.3165 38.9422 99.0898 39.4242 98.6372 39.8237C98.1838 40.2231 97.6377 40.4224 97.0005 40.4224H75.5586L74.249 40.3722Z" fill="#B42DCC"/>
<path d="M74.249 40.3722C73.6788 40.3722 73.1842 40.1652 72.7643 39.7487C72.3444 39.3331 72.1357 38.8085 72.1357 38.1757V7.62249C72.1357 6.99055 72.3444 6.4574 72.7643 6.02474C73.1834 5.59294 73.678 5.37576 74.249 5.37576H81.0449C81.615 5.37576 82.1097 5.59294 82.5296 6.02474C82.9486 6.4574 83.159 6.99055 83.159 7.62249V29.9885H97.0005C97.6377 29.9885 98.1838 30.1878 98.6372 30.5872C99.0898 30.9866 99.3165 31.4866 99.3165 32.0853V38.3758C99.3165 38.9422 99.0898 39.4242 98.6372 39.8237C98.1838 40.2231 97.6377 40.4224 97.0005 40.4224H75.5586L74.249 40.3722Z" fill="white"/>
<path d="M0 84.7107V64.9014V49.3881C0 48.7561 0.280798 48.217 0.843252 47.7707C1.40571 47.3236 2.08151 47.1004 2.86981 47.1004H15.0781C20.6288 47.0638 24.8304 48.0407 27.6805 50.0302C30.5305 52.0198 32.0685 55.0432 32.2935 59.0972C32.2935 59.2463 32.3021 59.5631 32.3218 60.0451C32.3398 60.5297 32.3501 61.1055 32.3501 61.7749C32.3501 62.7058 32.3304 63.3744 32.2943 63.784C32.1818 66.2394 31.4777 68.5551 30.1845 70.7312C28.8913 72.9072 26.808 74.6932 23.9391 76.0882C21.0701 77.4833 17.3287 78.1808 12.7149 78.1808V84.0957C12.7149 84.9142 12.3293 85.6015 11.5617 86.1602C10.7923 86.7181 9.84424 86.9966 8.72019 86.9966H3.09479C2.23093 86.9966 1.49931 86.7734 0.899927 86.3272C0.299689 85.8817 0 85.3435 0 84.7107ZM10.2959 67.3006H13.6148C15.3778 67.3006 16.9629 66.9753 18.3686 66.3237C19.7752 65.6739 20.4793 64.1758 20.4793 61.832C20.4793 60.1218 20.0294 58.8468 19.1286 58.0096C18.2278 57.1733 16.841 56.7176 14.9656 56.6427H10.2959C10.4453 56.6427 10.5209 56.5873 10.5209 56.4757V67.5237C10.5209 67.3756 10.4453 67.3006 10.2959 67.3006Z" fill="#B42DCC"/>
<path d="M0 84.7107V64.9014V49.3881C0 48.7561 0.280798 48.217 0.843252 47.7707C1.40571 47.3236 2.08151 47.1004 2.86981 47.1004H15.0781C20.6288 47.0638 24.8304 48.0407 27.6805 50.0302C30.5305 52.0198 32.0685 55.0432 32.2935 59.0972C32.2935 59.2463 32.3021 59.5631 32.3218 60.0451C32.3398 60.5297 32.3501 61.1055 32.3501 61.7749C32.3501 62.7058 32.3304 63.3744 32.2943 63.784C32.1818 66.2394 31.4777 68.5551 30.1845 70.7312C28.8913 72.9072 26.808 74.6932 23.9391 76.0882C21.0701 77.4833 17.3287 78.1808 12.7149 78.1808V84.0957C12.7149 84.9142 12.3293 85.6015 11.5617 86.1602C10.7923 86.7181 9.84424 86.9966 8.72019 86.9966H3.09479C2.23093 86.9966 1.49931 86.7734 0.899927 86.3272C0.299689 85.8817 0 85.3435 0 84.7107ZM10.2959 67.3006H13.6148C15.3778 67.3006 16.9629 66.9753 18.3686 66.3237C19.7752 65.6739 20.4793 64.1758 20.4793 61.832C20.4793 60.1218 20.0294 58.8468 19.1286 58.0096C18.2278 57.1733 16.841 56.7176 14.9656 56.6427H10.2959C10.4453 56.6427 10.5209 56.5873 10.5209 56.4757V67.5237C10.5209 67.3756 10.4453 67.3006 10.2959 67.3006Z" fill="white"/>
<path d="M50.2405 57.4798V61.9996H66.1069C66.7072 61.9996 67.2413 62.233 67.711 62.698C68.179 63.163 68.4143 63.749 68.4143 64.455V69.3105C68.4143 69.9433 68.179 70.5096 67.711 71.0113C67.2413 71.5138 66.7072 71.765 66.1069 71.765H50.2405V76.7311H66.8935C67.5307 76.7311 68.0837 76.9645 68.5534 77.4287C69.0223 77.8945 69.2575 78.4984 69.2575 79.2428V84.042C69.2575 84.7114 69.0223 85.2974 68.5534 85.799C68.0837 86.3015 67.5307 86.5527 66.8935 86.5527H40.3388C39.7007 86.5527 39.1486 86.3015 38.6797 85.799C38.2092 85.2974 37.9756 84.7114 37.9756 84.042V83.8733V79.2419V55.0244V50.1698C37.9756 49.4629 38.2092 48.8778 38.6797 48.4119C39.1486 47.9469 39.7007 47.7144 40.3388 47.7144H66.8935C67.5307 47.7144 68.0837 47.9469 68.5534 48.4119C69.0223 48.8778 69.2575 49.4629 69.2575 50.1698V55.0244C69.2575 55.6572 69.0128 56.2244 68.5259 56.7269C68.0373 57.2285 67.4937 57.4798 66.8944 57.4798H50.2405Z" fill="#B42DCC"/>
<path d="M50.2405 57.4798V61.9996H66.1069C66.7072 61.9996 67.2413 62.233 67.711 62.698C68.179 63.163 68.4143 63.749 68.4143 64.455V69.3105C68.4143 69.9433 68.179 70.5096 67.711 71.0113C67.2413 71.5138 66.7072 71.765 66.1069 71.765H50.2405V76.7311H66.8935C67.5307 76.7311 68.0837 76.9645 68.5534 77.4287C69.0223 77.8945 69.2575 78.4984 69.2575 79.2428V84.042C69.2575 84.7114 69.0223 85.2974 68.5534 85.799C68.0837 86.3015 67.5307 86.5527 66.8935 86.5527H40.3388C39.7007 86.5527 39.1486 86.3015 38.6797 85.799C38.2092 85.2974 37.9756 84.7114 37.9756 84.042V83.8733V79.2419V55.0244V50.1698C37.9756 49.4629 38.2092 48.8778 38.6797 48.4119C39.1486 47.9469 39.7007 47.7144 40.3388 47.7144H66.8935C67.5307 47.7144 68.0837 47.9469 68.5534 48.4119C69.0223 48.8778 69.2575 49.4629 69.2575 50.1698V55.0244C69.2575 55.6572 69.0128 56.2244 68.5259 56.7269C68.0373 57.2285 67.4937 57.4798 66.8944 57.4798H50.2405Z" fill="white"/>
<path d="M106.839 47.6591C107.476 47.6591 108.038 47.8916 108.527 48.3566C109.013 48.8225 109.259 49.3523 109.259 49.9476V56.4204C109.259 57.0532 109.013 57.611 108.527 58.0939C108.038 58.5785 107.476 58.8195 106.839 58.8195H97.9495V84.0421C97.9495 84.749 97.7339 85.3443 97.3029 85.8272C96.8718 86.3118 96.3368 86.5528 95.6988 86.5528H88.2169C87.5788 86.5528 87.043 86.3203 86.6128 85.8544C86.1809 85.3903 85.9653 84.8043 85.9653 84.0974L86.3603 58.8195H77.3576C76.6449 58.8195 76.055 58.5777 75.5861 58.0939C75.1164 57.6119 74.8828 57.054 74.8828 56.4204V49.9476C74.8828 49.3156 75.1164 48.7757 75.5861 48.3294C76.055 47.8831 76.6449 47.66 77.3576 47.66L106.839 47.6591Z" fill="#B42DCC"/>
<path d="M106.839 47.6591C107.476 47.6591 108.038 47.8916 108.527 48.3566C109.013 48.8225 109.259 49.3523 109.259 49.9476V56.4204C109.259 57.0532 109.013 57.611 108.527 58.0939C108.038 58.5785 107.476 58.8195 106.839 58.8195H97.9495V84.0421C97.9495 84.749 97.7339 85.3443 97.3029 85.8272C96.8718 86.3118 96.3368 86.5528 95.6988 86.5528H88.2169C87.5788 86.5528 87.043 86.3203 86.6128 85.8544C86.1809 85.3903 85.9653 84.8043 85.9653 84.0974L86.3603 58.8195H77.3576C76.6449 58.8195 76.055 58.5777 75.5861 58.0939C75.1164 57.6119 74.8828 57.054 74.8828 56.4204V49.9476C74.8828 49.3156 75.1164 48.7757 75.5861 48.3294C76.055 47.8831 76.6449 47.66 77.3576 47.66L106.839 47.6591Z" fill="white"/>
<path d="M111.452 79.5769C111.452 78.9075 111.789 78.1265 112.465 77.2331L114.546 74.5545C115.147 73.6995 115.624 73.0948 115.981 72.7405C116.337 72.387 116.721 72.2107 117.135 72.2107C117.473 72.2107 117.884 72.3223 118.373 72.5454C118.861 72.7686 119.535 73.1416 120.398 73.662C120.51 73.7361 121.467 74.3868 123.268 75.6149C125.068 76.8421 127.318 77.3821 130.019 77.2322C130.92 77.1956 131.623 76.9452 132.129 76.4793C132.634 76.0143 132.888 75.4471 132.888 74.7768C132.888 73.8843 132.438 73.0667 131.538 72.3214C130.638 71.5779 129.362 71.1504 127.711 71.0388H127.767C124.466 70.3685 121.897 69.5228 120.059 68.4991C118.223 67.4762 116.909 66.2583 116.121 64.8445C115.334 63.4308 114.865 61.6831 114.716 59.599C114.565 57.1437 115.091 54.9037 116.291 52.875C117.491 50.8472 119.217 49.2477 121.467 48.0767C123.718 46.9048 126.306 46.3188 129.231 46.3188C131.406 46.3188 133.582 46.6348 135.757 47.2667C137.557 47.7513 139.198 48.3927 140.68 49.1915C142.162 49.9921 143.333 50.9128 144.197 51.9544C144.722 52.4748 144.984 52.9585 144.984 53.4048C144.984 53.7778 144.844 54.1773 144.563 54.6048C144.282 55.0323 143.804 55.6192 143.128 56.3627L141.496 58.0916C140.972 58.6503 140.568 59.0327 140.287 59.2362C140.006 59.4406 139.733 59.5428 139.471 59.5428C139.208 59.5428 138.87 59.4313 138.458 59.2081C138.045 58.985 137.641 58.7525 137.248 58.5106C136.855 58.2687 136.508 58.055 136.207 57.8684C133.619 56.2324 131.35 55.4131 129.4 55.4131C128.199 55.4131 127.252 55.7018 126.559 56.2784C125.863 56.8558 125.517 57.5525 125.517 58.3709C125.517 59.1894 125.855 59.9244 126.531 60.5751C127.206 61.2258 128.161 61.6439 129.4 61.8305C134.763 62.6498 138.766 64.2296 141.411 66.5735C144.056 68.9181 145.378 71.5958 145.378 74.609C145.378 76.8413 144.674 78.9892 143.269 81.0537C141.861 83.1182 139.911 84.7926 137.417 86.0761C134.923 87.3587 132.138 88 129.061 88C124.035 88 118.991 86.2523 113.928 82.7554C112.277 81.6414 111.452 80.5819 111.452 79.5769Z" fill="#B42DCC"/>
<path d="M111.452 79.5769C111.452 78.9075 111.789 78.1265 112.465 77.2331L114.546 74.5545C115.147 73.6995 115.624 73.0948 115.981 72.7405C116.337 72.387 116.721 72.2107 117.135 72.2107C117.473 72.2107 117.884 72.3223 118.373 72.5454C118.861 72.7686 119.535 73.1416 120.398 73.662C120.51 73.7361 121.467 74.3868 123.268 75.6149C125.068 76.8421 127.318 77.3821 130.019 77.2322C130.92 77.1956 131.623 76.9452 132.129 76.4793C132.634 76.0143 132.888 75.4471 132.888 74.7768C132.888 73.8843 132.438 73.0667 131.538 72.3214C130.638 71.5779 129.362 71.1504 127.711 71.0388H127.767C124.466 70.3685 121.897 69.5228 120.059 68.4991C118.223 67.4762 116.909 66.2583 116.121 64.8445C115.334 63.4308 114.865 61.6831 114.716 59.599C114.565 57.1437 115.091 54.9037 116.291 52.875C117.491 50.8472 119.217 49.2477 121.467 48.0767C123.718 46.9048 126.306 46.3188 129.231 46.3188C131.406 46.3188 133.582 46.6348 135.757 47.2667C137.557 47.7513 139.198 48.3927 140.68 49.1915C142.162 49.9921 143.333 50.9128 144.197 51.9544C144.722 52.4748 144.984 52.9585 144.984 53.4048C144.984 53.7778 144.844 54.1773 144.563 54.6048C144.282 55.0323 143.804 55.6192 143.128 56.3627L141.496 58.0916C140.972 58.6503 140.568 59.0327 140.287 59.2362C140.006 59.4406 139.733 59.5428 139.471 59.5428C139.208 59.5428 138.87 59.4313 138.458 59.2081C138.045 58.985 137.641 58.7525 137.248 58.5106C136.855 58.2687 136.508 58.055 136.207 57.8684C133.619 56.2324 131.35 55.4131 129.4 55.4131C128.199 55.4131 127.252 55.7018 126.559 56.2784C125.863 56.8558 125.517 57.5525 125.517 58.3709C125.517 59.1894 125.855 59.9244 126.531 60.5751C127.206 61.2258 128.161 61.6439 129.4 61.8305C134.763 62.6498 138.766 64.2296 141.411 66.5735C144.056 68.9181 145.378 71.5958 145.378 74.609C145.378 76.8413 144.674 78.9892 143.269 81.0537C141.861 83.1182 139.911 84.7926 137.417 86.0761C134.923 87.3587 132.138 88 129.061 88C124.035 88 118.991 86.2523 113.928 82.7554C112.277 81.6414 111.452 80.5819 111.452 79.5769Z" fill="white"/>
<path d="M120.839 3.72526C120.839 5.78293 119.158 7.45052 117.083 7.45052C115.008 7.45052 113.327 5.78293 113.327 3.72526C113.327 1.66759 115.008 0 117.083 0C119.158 0 120.839 1.66759 120.839 3.72526Z" fill="#B42DCC"/>
<path d="M120.839 3.72526C120.839 5.78293 119.158 7.45052 117.083 7.45052C115.008 7.45052 113.327 5.78293 113.327 3.72526C113.327 1.66759 115.008 0 117.083 0C119.158 0 120.839 1.66759 120.839 3.72526Z" fill="white"/>
<path d="M105.013 9.97542C102.939 9.97542 101.257 11.6439 101.257 13.7007C101.257 15.7549 102.939 17.4259 105.013 17.4259C107.087 17.4259 108.769 15.7549 108.769 13.7007C108.769 11.6447 107.087 9.97542 105.013 9.97542Z" fill="#B42DCC"/>
<path d="M105.013 9.97542C102.939 9.97542 101.257 11.6439 101.257 13.7007C101.257 15.7549 102.939 17.4259 105.013 17.4259C107.087 17.4259 108.769 15.7549 108.769 13.7007C108.769 11.6447 107.087 9.97542 105.013 9.97542Z" fill="white"/>
<path d="M145.244 9.97542C143.171 9.97542 141.488 11.6439 141.488 13.7007C141.488 15.7549 143.171 17.4259 145.244 17.4259C147.318 17.4259 149 15.7549 149 13.7007C149 11.6447 147.318 9.97542 145.244 9.97542Z" fill="#B42DCC"/>
<path d="M145.244 9.97542C143.171 9.97542 141.488 11.6439 141.488 13.7007C141.488 15.7549 143.171 17.4259 145.244 17.4259C147.318 17.4259 149 15.7549 149 13.7007C149 11.6447 147.318 9.97542 145.244 9.97542Z" fill="white"/>
<path d="M136.931 3.72526C136.931 5.78293 135.25 7.45052 133.175 7.45052C131.101 7.45052 129.419 5.78293 129.419 3.72526C129.419 1.66759 131.101 0 133.175 0C135.25 0 136.931 1.66759 136.931 3.72526Z" fill="#B42DCC"/>
<path d="M136.931 3.72526C136.931 5.78293 135.25 7.45052 133.175 7.45052C131.101 7.45052 129.419 5.78293 129.419 3.72526C129.419 1.66759 131.101 0 133.175 0C135.25 0 136.931 1.66759 136.931 3.72526Z" fill="white"/>
<path d="M125.128 11.9704C116.402 11.9704 109.303 19.0121 109.303 27.666C109.303 34.0383 114.5 39.3716 121.105 39.3716H129.151C135.771 39.3716 140.953 34.023 140.953 27.666C140.953 19.0121 133.855 11.9704 125.128 11.9704ZM129.151 31.921H121.105C118.705 31.921 116.815 29.9809 116.815 27.666C116.815 23.1198 120.544 19.4209 125.128 19.4209C129.713 19.4209 133.441 23.1198 133.441 27.666C133.441 29.9826 131.551 31.921 129.151 31.921Z" fill="#B42DCC"/>
<path d="M125.128 11.9704C116.402 11.9704 109.303 19.0121 109.303 27.666C109.303 34.0383 114.5 39.3716 121.105 39.3716H129.151C135.771 39.3716 140.953 34.023 140.953 27.666C140.953 19.0121 133.855 11.9704 125.128 11.9704ZM129.151 31.921H121.105C118.705 31.921 116.815 29.9809 116.815 27.666C116.815 23.1198 120.544 19.4209 125.128 19.4209C129.713 19.4209 133.441 23.1198 133.441 27.666C133.441 29.9826 131.551 31.921 129.151 31.921Z" fill="white"/>
</svg>
